<?xml version="1.0" standalone="no"?>
<!DOCTYPE svg PUBLIC "-//W3C//DTD SVG 20010904//EN"
 "http://www.w3.org/TR/2001/REC-SVG-20010904/DTD/svg10.dtd">
<svg version="1.0" xmlns="http://www.w3.org/2000/svg"
 width="16.000000pt" height="16.000000pt" viewBox="0 0 16.000000 16.000000"
 preserveAspectRatio="xMidYMid meet">
<metadata>
Created by potrace 1.11, written by Peter Selinger 2001-2013
</metadata>
<g transform="translate(0.000000,16.000000) scale(0.002000,-0.002000)"
fill="#000000" stroke="none">
<path d="M0 4000 l0 -4000 4000 0 4000 0 0 4000 0 4000 -4000 0 -4000 0 0
-4000z m2575 1310 c348 -33 670 -179 1014 -460 142 -116 518 -480 702 -680
518 -562 815 -783 1149 -852 151 -32 262 -16 419 59 172 82 301 243 352 440
28 109 28 297 0 406 -47 181 -152 313 -314 391 -253 124 -529 97 -827 -80
-154 -91 -426 -310 -569 -458 -24 -25 -48 -43 -53 -40 -4 3 -6 10 -3 15 4 5
-1 9 -10 9 -10 0 -13 5 -9 12 4 7 3 8 -5 4 -6 -4 -14 0 -18 11 -3 10 -20 31
-37 48 -17 16 -30 34 -28 38 1 5 -2 6 -8 2 -5 -3 -10 1 -10 9 0 9 -3 15 -7 14
-5 -2 -9 1 -10 5 -1 4 -18 22 -38 39 -19 18 -35 38 -35 45 0 7 -5 13 -11 13
-11 0 -44 29 -44 40 0 3 -16 21 -35 40 -19 19 -34 38 -32 42 1 4 -4 7 -10 6
-7 -2 -12 3 -10 10 1 6 -3 11 -10 10 -7 -2 -12 2 -13 9 0 6 -3 15 -7 19 -16
15 328 329 503 459 380 283 785 411 1182 375 615 -57 1067 -471 1172 -1075 23
-131 24 -348 1 -475 -49 -274 -160 -486 -355 -680 -152 -151 -306 -247 -514
-319 -174 -61 -269 -75 -502 -76 -197 0 -217 2 -319 28 -306 77 -577 234 -941
542 -191 162 -296 267 -520 516 -275 306 -328 362 -462 484 -342 314 -621 445
-918 432 -138 -6 -219 -30 -320 -98 -128 -86 -219 -217 -267 -386 -17 -61 -22
-105 -22 -203 -1 -144 14 -213 72 -330 53 -110 177 -232 292 -288 126 -62 192
-76 345 -76 124 0 135 2 240 38 205 69 379 181 647 413 102 89 107 92 121 73
8 -11 17 -17 21 -13 4 4 9 -2 12 -14 3 -11 30 -42 60 -67 29 -26 53 -50 51
-54 -1 -5 16 -26 39 -47 22 -22 44 -48 47 -58 4 -10 11 -15 17 -12 6 3 14 -2
18 -13 4 -11 31 -41 60 -67 28 -26 52 -55 52 -65 0 -10 -43 -57 -97 -107 -54
-48 -109 -98 -123 -111 -52 -48 -248 -193 -335 -247 -181 -114 -392 -201 -597
-246 -138 -30 -402 -37 -539 -14 -283 47 -527 172 -724 370 -242 242 -368 530
-382 870 -15 369 111 706 363 965 258 266 576 399 999 419 17 0 80 -4 140 -9z"/>
</g>
</svg>
